#!OML:ASF H:\Dans Jumps\Project 1\Capture day 1\Session 1\subject.ASF
:FULLY-SPECIFIED
:DEGREES
480
root 0.107761 17.3831 8.48869 9.61426 -3.52787 -1.17638
lowerback 8.00024 -1.06083 -0.23541
upperback 3.29236 -1.3943 1.96815
thorax -1.02604 -0.710526 2.28211
lowerneck -13.9293 2.20321 -0.910566
upperneck 20.3581 3.25069 -0.0328683
head 8.63296 1.44655 0.510776
rclavicle 8.94531e-016 1.78906e-015
rhumerus -28.6017 -27.2953 -74.5506
rradius 17.8724
rwrist 51.1953
rhand -21.0948 -26.7041
rfingers 7.12502
rthumb 5.28277 -56.6183
lclavicle 8.94531e-016 1.78906e-015
lhumerus -10.7955 0.843223 87.6906
lradius 17.2243
lwrist 9.04896
lhand -25.5259 -8.8693
lfingers 7.12502
lthumb 1.00364 21.1081
rfemur -30.0279 -0.1833 19.8805
rtibia 32.4829
rfoot -12.086 -2.36549
rtoes 0.694073
lfemur -30.0185 8.10015 -20.2184
ltibia 29.5644
lfoot -7.2715 3.86212
ltoes -8.02463
481
root 0.107479 17.3924 8.52608 9.66076 -3.5922 -1.20416
lowerback 7.91779 -1.04492 -0.240139
upperback 3.24836 -1.37345 1.98264
thorax -1.0263 -0.700005 2.29661
lowerneck -13.9428 2.18996 -0.91212
upperneck 20.1498 3.2324 -0.0413642
head 8.56493 1.43932 0.504283
rclavicle 9.74045e-015 1.15295e-014
rhumerus -28.9475 -27.8511 -74.1674
rradius 17.6895
rwrist 51.7578
rhand -21.0764 -26.6845
rfingers 7.12502
rthumb 5.30056 -56.5982
lclavicle 9.74045e-015 1.15295e-014
lhumerus -10.8206 1.10011 87.6706
lradius 17.0897
lwrist 8.46241
lhand -25.638 -8.87359
lfingers 7.12502
lthumb 0.895413 21.1043
rfemur -29.8361 -0.16401 19.9055
rtibia 32.2628
rfoot -12.0935 -2.24441
rtoes 0.905531
lfemur -29.8299 8.11814 -20.1829
ltibia 29.3947
lfoot -7.261 3.96933
ltoes -8.12975
482
root 0.107402 17.4016 8.56367 9.70235 -3.66012 -1.23217
lowerback 7.83082 -1.02557 -0.241062
upperback 3.20686 -1.34792 1.99259
thorax -1.02189 -0.687134 2.30376
lowerneck -13.9644 2.17108 -0.904431
upperneck 19.9341 3.206 -0.057754
head 8.49637 1.42818 0.492778
rclavicle 6.55989e-015 1.59028e-015
rhumerus -29.2605 -28.246 -73.8712
rradius 17.5766
rwrist 52.1148
rhand -21.0536 -26.6458
rfingers 7.12502
rthumb 5.32263 -56.559
lclavicle 6.55989e-015 1.59028e-015
lhumerus -10.8672 1.30594 87.6651
lradius 17.0056
lwrist 7.92012
lhand -25.7889 -8.91003
lfingers 7.12502
lthumb 0.749657 21.0684
rfemur -29.6421 -0.136584 19.93
rtibia 32.0521
rfoot -12.0813 -2.11894
rtoes 1.23239
lfemur -29.6363 8.16516 -20.1525
ltibia 29.2316
lfoot -7.27177 4.05556
ltoes -8.22536
483
root 0.107596 17.4108 8.60179 9.74464 -3.72267 -1.25806
lowerback 7.73838 -1.00991 -0.239693
upperback 3.16147 -1.32716 1.99849
thorax -1.0184 -0.676563 2.30582
lowerneck -13.9808 2.14971 -0.886584
upperneck 19.7078 3.17476 -0.0795291
head 8.42373 1.41507 0.47713
rclavicle 5.26779e-015 9.74045e-015
rhumerus -29.5394 -28.4796 -73.6664
rradius 17.5238
rwrist 52.2842
rhand -21.0216 -26.6083
rfingers 7.12502
rthumb 5.35353 -56.5206
lclavicle 5.26779e-015 9.74045e-015
lhumerus -10.9488 1.44491 87.6673
lradius 16.9844
lwrist 7.45664
lhand -25.9484 -8.95047
lfingers 7.12502
lthumb 0.595547 21.0284
rfemur -29.4466 -0.114673 19.9522
rtibia 31.8463
rfoot -12.052 -1.99691
rtoes 1.63551
lfemur -29.4418 8.23531 -20.1309
ltibia 29.0733
lfoot -7.30707 4.11781
ltoes -8.32185
484
root 0.107639 17.42 8.64001 9.78647 -3.771 -1.28799
lowerback 7.63848 -0.998374 -0.229856
upperback 3.11654 -1.31137 2.0022
thorax -1.01035 -0.668426 2.30111
lowerneck -14.0038 2.12559 -0.862377
upperneck 19.4825 3.13859 -0.10227
head 8.35295 1.39993 0.459725
rclavicle -4.67144e-015 -7.35503e-015
rhumerus -29.7737 -28.5746 -73.5527
rradius 17.5206
rwrist 52.2905
rhand -20.9889 -26.5718
rfingers 7.12502
rthumb 5.38509 -56.4834
lclavicle -4.67144e-015 -7.35503e-015
lhumerus -11.0503 1.50413 87.6797
lradius 17.0038
lwrist 7.0788
lhand -26.1115 -9.00519
lfingers 7.12502
lthumb 0.43807 20.9741
rfemur -29.2486 -0.0920818 19.9793
rtibia 31.6439
rfoot -12.0075 -1.89773
rtoes 2.06675
lfemur -29.2474 8.31967 -20.1076
ltibia 28.9159
lfoot -7.36204 4.15373
ltoes -8.42163
485
root 0.107339 17.4288 8.67825 9.83314 -3.79963 -1.31931
lowerback 7.52633 -0.994393 -0.218503
upperback 3.07069 -1.30558 2.0067
thorax -0.996026 -0.665309 2.29695
lowerneck -14.0415 2.10227 -0.832073
upperneck 19.268 3.10275 -0.126533
head 8.28869 1.385 0.441203
rclavicle -1.38155e-014 2.127e-014
rhumerus -29.9552 -28.5346 -73.5279
rradius 17.553
rwrist 52.1601
rhand -20.9609 -26.5489
rfingers 7.12502
rthumb 5.41213 -56.4598
lclavicle -1.38155e-014 2.127e-014
lhumerus -11.1714 1.47903 87.7017
lradius 17.0652
lwrist 6.80774
lhand -26.2677 -9.07107
lfingers 7.12502
lthumb 0.287157 20.9085
rfemur -29.0549 -0.0709518 20.0083
rtibia 31.4452
rfoot -11.9547 -1.82647
rtoes 2.49996
lfemur -29.0597 8.41102 -20.0848
ltibia 28.7562
lfoot -7.42971 4.15991
ltoes -8.51599
486
root 0.106781 17.4376 8.71669 9.88013 -3.80918 -1.33665
lowerback 7.39586 -0.996014 -0.218246
upperback 3.02713 -1.30826 2.00786
thorax -0.968645 -0.666566 2.29583
lowerneck -14.0897 2.07601 -0.808464
upperneck 19.0669 3.06285 -0.142032
head 8.23069 1.36833 0.426571
rclavicle -2.78299e-015 -1.37161e-014
rhumerus -30.083 -28.4159 -73.5681
rradius 17.5996
rwrist 51.9616
rhand -20.9401 -26.5371
rfingers 7.12502
rthumb 5.43219 -56.4475
lclavicle -2.78299e-015 -1.37161e-014
lhumerus -11.3109 1.38144 87.7374
lradius 17.1662
lwrist 6.63466
lhand -26.4038 -9.12979
lfingers 7.12502
lthumb 0.155753 20.8499
rfemur -28.8615 -0.0612651 20.0228
rtibia 31.2518
rfoot -11.9046 -1.77621
rtoes 2.89258
lfemur -28.8724 8.50339 -20.0791
ltibia 28.5899
lfoot -7.50674 4.13936
ltoes -8.60794
487
root 0.105755 17.4461 8.75493 9.92467 -3.79553 -1.34547
lowerback 7.25541 -1.00379 -0.224808
upperback 2.98247 -1.31964 2.00822
thorax -0.936344 -0.672221 2.29817
lowerneck -14.129 2.04507 -0.801517
upperneck 18.8737 3.01679 -0.14087
head 8.17331 1.34913 0.419546
rclavicle -1.88845e-014 1.47101e-014
rhumerus -30.1659 -28.2289 -73.6632
rradius 17.6549
rwrist 51.722
rhand -20.9188 -26.5466
rfingers 7.12502
rthumb 5.45272 -56.4565
lclavicle -1.88845e-014 1.47101e-014
lhumerus -11.463 1.19539 87.788
lradius 17.288
lwrist 6.57974
lhand -26.5167 -9.17793
lfingers 7.12502
lthumb 0.046699 20.8018
rfemur -28.667 -0.0584815 20.0288
rtibia 31.0641
rfoot -11.8626 -1.7526
rtoes 3.23118
lfemur -28.6828 8.59208 -20.0818
ltibia 28.4124
lfoot -7.58513 4.09056
ltoes -8.70617
488
root 0.104398 17.4546 8.793 9.96895 -3.76389 -1.34194
lowerback 7.10241 -1.0165 -0.242958
upperback 2.93711 -1.33843 2.00719
thorax -0.897209 -0.681682 2.30586
lowerneck -14.1674 2.01161 -0.811475
upperneck 18.6966 2.96776 -0.122285
head 8.12065 1.32887 0.420919
rclavicle 5.56597e-015 1.41137e-014
rhumerus -30.2053 -27.984 -73.8043
rradius 17.7144
rwrist 51.4647
rhand -20.9091 -26.5546
rfingers 7.12502
rthumb 5.46209 -56.4642
lclavicle 5.56597e-015 1.41137e-014
lhumerus -11.6295 0.965652 87.8549
lradius 17.4283
lwrist 6.59938
lhand -26.6163 -9.228
lfingers 7.12502
lthumb -0.0494909 20.7517
rfemur -28.4737 -0.0629646 20.0217
rtibia 30.8814
rfoot -11.8343 -1.74862
rtoes 3.50762
lfemur -28.4922 8.67833 -20.0983
ltibia 28.2216
lfoot -7.66036 4.01736
ltoes -8.80836
489
root 0.102799 17.4632 8.83088 10.0101 -3.71809 -1.32812
lowerback 6.94558 -1.0335 -0.270773
upperback 2.88912 -1.3635 2.00383
thorax -0.858171 -0.694306 2.31693
lowerneck -14.2049 1.97754 -0.824945
upperneck 18.5395 2.91773 -0.0975982
head 8.07448 1.30826 0.42496
rclavicle -6.26172e-015 7.15625e-015
rhumerus -30.2099 -27.6788 -73.9887
rradius 17.7788
rwrist 51.1949
rhand -20.905 -26.5616
rfingers 7.12502
rthumb 5.46609 -56.4712
lclavicle -6.26172e-015 7.15625e-015
lhumerus -11.8065 0.703345 87.9335
lradius 17.5752
lwrist 6.67867
lhand -26.692 -9.26285
lfingers 7.12502
lthumb -0.122594 20.7169
rfemur -28.277 -0.0734254 20.0033
rtibia 30.7009
rfoot -11.8196 -1.75906
rtoes 3.72528
lfemur -28.2958 8.76221 -20.1255
ltibia 28.018
lfoot -7.73199 3.92558
ltoes -8.9152
490
root 0.100958 17.4718 8.86836 10.0476 -3.6656 -1.31415
lowerback 6.78789 -1.05093 -0.300009
upperback 2.83866 -1.3891 2.00101
thorax -0.821036 -0.707185 2.32932
lowerneck -14.2552 1.94832 -0.824511
upperneck 18.4151 2.87422 -0.0846456
head 8.04194 1.29014 0.423979
rclavicle -4.37326e-015 1.05356e-014
rhumerus -30.1833 -27.3415 -74.2021
rradius 17.8442
rwrist 50.9354
rhand -20.8997 -26.5588
rfingers 7.12502
rthumb 5.47121 -56.4682
lclavicle -4.37326e-015 1.05356e-014
lhumerus -11.9884 0.432263 88.0258
lradius 17.7152
lwrist 6.7751
lhand -26.7651 -9.29636
lfingers 7.12502
lthumb -0.193167 20.6833
rfemur -28.0757 -0.079652 19.9844
rtibia 30.5185
rfoot -11.8148 -1.78472
rtoes 3.88713
lfemur -28.0937 8.84852 -20.1523
ltibia 27.8037
lfoot -7.79768 3.82137
ltoes -9.03691
491
root 0.0990987 17.4806 8.90587 10.0845 -3.6138 -1.29751
lowerback 6.62505 -1.06827 -0.332961
upperback 2.78392 -1.41472 1.99705
thorax -0.785332 -0.720056 2.34248
lowerneck -14.2945 1.92179 -0.815428
upperneck 18.304 2.83321 -0.0752496
head 8.01211 1.27331 0.420654
rclavicle 6.95746e-015 -9.34288e-015
rhumerus -30.1341 -26.9905 -74.4348
rradius 17.9098
rwrist 50.6995
rhand -20.8915 -26.5447
rfingers 7.12502
rthumb 5.47911 -56.4539
lclavicle 6.95746e-015 -9.34288e-015
lhumerus -12.1709 0.16515 88.1259
lradius 17.8376
lwrist 6.87145
lhand -26.8234 -9.31073
lfingers 7.12502
lthumb -0.249481 20.6689
rfemur -27.8691 -0.0824252 19.9617
rtibia 30.3291
rfoot -11.8162 -1.81643
rtoes 4.01878
lfemur -27.8867 8.93826 -20.1821
ltibia 27.5827
lfoot -7.86207 3.71292
ltoes -9.16792
492
root 0.097349 17.4896 8.94311 10.1142 -3.56875 -1.28689
lowerback 6.45799 -1.08017 -0.357514
upperback 2.73123 -1.43259 1.99292
thorax -0.745635 -0.729046 2.34998
lowerneck -14.3387 1.89743 -0.793816
upperneck 18.2152 2.79435 -0.0742335
head 7.99089 1.25728 0.412977
rclavicle -2.5842e-015 7.95139e-015
rhumerus -30.0631 -26.6423 -74.6762
rradius 17.9736
rwrist 50.4842
rhand -20.8802 -26.5216
rfingers 7.12502
rthumb 5.49001 -56.4305
lclavicle -2.5842e-015 7.95139e-015
lhumerus -12.3439 -0.0880227 88.2374
lradius 17.926
lwrist 6.90611
lhand -26.8886 -9.34754
lfingers 7.12502
lthumb -0.312539 20.632
rfemur -27.6495 -0.0790481 19.945
rtibia 30.129
rfoot -11.817 -1.8508
rtoes 4.10891
lfemur -27.6677 9.03036 -20.2038
ltibia 27.356
lfoot -7.92344 3.61025
ltoes -9.30414
